<?xml version="1.0" encoding="us-ascii" standalone="no"?><svg xmlns="http://www.w3.org/2000/svg" xmlns:xlink="http://www.w3.org/1999/xlink" contentStyleType="text/css" height="803px" preserveAspectRatio="none" style="width:952px;height:803px;background:#FFFFFF;" version="1.1" viewBox="0 0 952 803" width="952px" zoomAndPan="magnify"><defs/><g><text fill="#000000" font-family="sans-serif" font-size="14" font-weight="bold" lengthAdjust="spacing" textLength="61" x="444" y="32.9951">ETL ELT</text><rect fill="#F8F8FF" height="36.2969" rx="12.5" ry="12.5" style="stroke:#181818;stroke-width:1.5;" width="84" x="10" y="395.0859"/><text fill="#000000" font-family="sans-serif" font-size="14" lengthAdjust="spacing" textLength="64" x="20" y="418.0811">Life Cycle</text><rect fill="#D3D3D3" height="36.2969" rx="12.5" ry="12.5" style="stroke:#181818;stroke-width:1.5;" width="242" x="144" y="84.0391"/><text fill="#000000" font-family="sans-serif" font-size="14" lengthAdjust="spacing" textLength="222" x="154" y="107.0342">Requisitos de Neg&#243;cio e An&#225;lise</text><text fill="#000000" font-family="sans-serif" font-size="14" lengthAdjust="spacing" textLength="501" x="439" y="61.292">Identificar:necessidade de processamento de DesignedDomainFontSize</text><path d="M386,102.1875 L396,102.1875 C411,102.1875 411,56.4453 426,56.4453 L436,56.4453 " fill="none" style="stroke:#181818;stroke-width:1.0;"/><text fill="#000000" font-family="sans-serif" font-size="14" lengthAdjust="spacing" textLength="248" x="439" y="79.5889">Data sources: estrutura e qualidade</text><path d="M386,102.1875 L396,102.1875 C411,102.1875 411,74.7422 426,74.7422 L436,74.7422 " fill="none" style="stroke:#181818;stroke-width:1.0;"/><text fill="#000000" font-family="sans-serif" font-size="14" lengthAdjust="spacing" textLength="387" x="439" y="97.8857">KPIs: janela de processamento, tempo m&#225;ximo de carga</text><path d="M386,102.1875 L396,102.1875 C411,102.1875 411,93.0391 426,93.0391 L436,93.0391 " fill="none" style="stroke:#181818;stroke-width:1.0;"/><text fill="#000000" font-family="sans-serif" font-size="14" lengthAdjust="spacing" textLength="144" x="439" y="116.1826">Tipo: Realtime/Batch</text><path d="M386,102.1875 L396,102.1875 C411,102.1875 411,111.3359 426,111.3359 L436,111.3359 " fill="none" style="stroke:#181818;stroke-width:1.0;"/><text fill="#000000" font-family="sans-serif" font-size="14" lengthAdjust="spacing" textLength="188" x="439" y="134.4795">Diagrama de componentes</text><path d="M386,102.1875 L396,102.1875 C411,102.1875 411,129.6328 426,129.6328 L436,129.6328 " fill="none" style="stroke:#181818;stroke-width:1.0;"/><text fill="#000000" font-family="sans-serif" font-size="14" lengthAdjust="spacing" textLength="163" x="439" y="152.7764">Diagrama de sequencia</text><path d="M386,102.1875 L396,102.1875 C411,102.1875 411,147.9297 426,147.9297 L436,147.9297 " fill="none" style="stroke:#181818;stroke-width:1.0;"/><path d="M94,413.2344 L104,413.2344 C119,413.2344 119,102.1875 134,102.1875 L144,102.1875 " fill="none" style="stroke:#181818;stroke-width:1.0;"/><rect fill="#D3D3D3" height="36.2969" rx="12.5" ry="12.5" style="stroke:#181818;stroke-width:1.5;" width="180" x="144" y="202.9688"/><text fill="#000000" font-family="sans-serif" font-size="14" lengthAdjust="spacing" textLength="160" x="154" y="225.9639">Planejamento e Design</text><text fill="#000000" font-family="sans-serif" font-size="14" lengthAdjust="spacing" textLength="354" x="377" y="171.0732">Criar: modelo para DW ou hierarquia para Data Lake</text><path d="M324,221.1172 L334,221.1172 C349,221.1172 349,166.2266 364,166.2266 L374,166.2266 " fill="none" style="stroke:#181818;stroke-width:1.0;"/><text fill="#000000" font-family="sans-serif" font-size="14" lengthAdjust="spacing" textLength="423" x="377" y="189.3701">Definir pipeline de dados: mapeamento entre source e target</text><path d="M324,221.1172 L334,221.1172 C349,221.1172 349,184.5234 364,184.5234 L374,184.5234 " fill="none" style="stroke:#181818;stroke-width:1.0;"/><text fill="#000000" font-family="sans-serif" font-size="14" lengthAdjust="spacing" textLength="140" x="377" y="207.667">Source: criar &#237;ndices</text><path d="M324,221.1172 L334,221.1172 C349,221.1172 349,202.8203 364,202.8203 L374,202.8203 " fill="none" style="stroke:#181818;stroke-width:1.0;"/><text fill="#000000" font-family="sans-serif" font-size="14" lengthAdjust="spacing" textLength="391" x="377" y="225.9639">Arquitetura do Job: hardware, software, rede, link (banda)</text><path d="M324,221.1172 L334,221.1172 C349,221.1172 349,221.1172 364,221.1172 L374,221.1172 " fill="none" style="stroke:#181818;stroke-width:1.0;"/><text fill="#000000" font-family="sans-serif" font-size="14" lengthAdjust="spacing" textLength="146" x="377" y="244.2607">Software: fixar vers&#227;o</text><path d="M324,221.1172 L334,221.1172 C349,221.1172 349,239.4141 364,239.4141 L374,239.4141 " fill="none" style="stroke:#181818;stroke-width:1.0;"/><text fill="#000000" font-family="sans-serif" font-size="14" lengthAdjust="spacing" textLength="129" x="377" y="262.5576">Definir: ETL ou ELT</text><path d="M324,221.1172 L334,221.1172 C349,221.1172 349,257.7109 364,257.7109 L374,257.7109 " fill="none" style="stroke:#181818;stroke-width:1.0;"/><text fill="#000000" font-family="sans-serif" font-size="14" lengthAdjust="spacing" textLength="171" x="377" y="280.8545">Schema + Data Contract</text><path d="M324,221.1172 L334,221.1172 C349,221.1172 349,276.0078 364,276.0078 L374,276.0078 " fill="none" style="stroke:#181818;stroke-width:1.0;"/><path d="M94,413.2344 L104,413.2344 C119,413.2344 119,221.1172 134,221.1172 L144,221.1172 " fill="none" style="stroke:#181818;stroke-width:1.0;"/><rect fill="#D3D3D3" height="36.2969" rx="12.5" ry="12.5" style="stroke:#181818;stroke-width:1.5;" width="187" x="144" y="331.0469"/><text fill="#000000" font-family="sans-serif" font-size="14" lengthAdjust="spacing" textLength="167" x="154" y="354.042">Desenvolvimento do Job</text><text fill="#000000" font-family="sans-serif" font-size="14" lengthAdjust="spacing" textLength="128" x="384" y="299.1514">Definir: ferramenta</text><path d="M331,349.1953 L341,349.1953 C356,349.1953 356,294.3047 371,294.3047 L381,294.3047 " fill="none" style="stroke:#181818;stroke-width:1.0;"/><text fill="#000000" font-family="sans-serif" font-size="14" lengthAdjust="spacing" textLength="133" x="384" y="317.4482">Scripts ou No Code</text><path d="M331,349.1953 L341,349.1953 C356,349.1953 356,312.6016 371,312.6016 L381,312.6016 " fill="none" style="stroke:#181818;stroke-width:1.0;"/><text fill="#000000" font-family="sans-serif" font-size="14" lengthAdjust="spacing" textLength="196" x="384" y="335.7451">Environment: dev, test, prod</text><path d="M331,349.1953 L341,349.1953 C356,349.1953 356,330.8984 371,330.8984 L381,330.8984 " fill="none" style="stroke:#181818;stroke-width:1.0;"/><text fill="#000000" font-family="sans-serif" font-size="14" lengthAdjust="spacing" textLength="108" x="384" y="354.042">Transforma&#231;&#227;o:</text><path d="M331,349.1953 L341,349.1953 C356,349.1953 356,349.1953 371,349.1953 L381,349.1953 " fill="none" style="stroke:#181818;stroke-width:1.0;"/><text fill="#000000" font-family="sans-serif" font-size="14" lengthAdjust="spacing" textLength="163" x="384" y="381.4873">Tem anonimiza&#231;&#227;o? PII?</text><text fill="#000000" font-family="sans-serif" font-size="14" lengthAdjust="spacing" textLength="186" x="600" y="354.042">regras de arredondamento</text><path d="M547,376.6406 L557,376.6406 C572,376.6406 572,349.1953 587,349.1953 L597,349.1953 " fill="none" style="stroke:#181818;stroke-width:1.0;"/><text fill="#000000" font-family="sans-serif" font-size="14" lengthAdjust="spacing" textLength="100" x="600" y="372.3389">regras de data</text><path d="M547,376.6406 L557,376.6406 C572,376.6406 572,367.4922 587,367.4922 L597,367.4922 " fill="none" style="stroke:#181818;stroke-width:1.0;"/><text fill="#000000" font-family="sans-serif" font-size="14" lengthAdjust="spacing" textLength="125" x="600" y="390.6357">regras monet&#225;rias</text><path d="M547,376.6406 L557,376.6406 C572,376.6406 572,385.7891 587,385.7891 L597,385.7891 " fill="none" style="stroke:#181818;stroke-width:1.0;"/><text fill="#000000" font-family="sans-serif" font-size="14" lengthAdjust="spacing" textLength="84" x="600" y="408.9326">list of values</text><path d="M547,376.6406 L557,376.6406 C572,376.6406 572,404.0859 587,404.0859 L597,404.0859 " fill="none" style="stroke:#181818;stroke-width:1.0;"/><path d="M331,349.1953 L341,349.1953 C356,349.1953 356,376.6406 371,376.6406 L381,376.6406 " fill="none" style="stroke:#181818;stroke-width:1.0;"/><path d="M94,413.2344 L104,413.2344 C119,413.2344 119,349.1953 134,349.1953 L144,349.1953 " fill="none" style="stroke:#181818;stroke-width:1.0;"/><rect fill="#D3D3D3" height="36.2969" rx="12.5" ry="12.5" style="stroke:#181818;stroke-width:1.5;" width="132" x="144" y="422.5313"/><text fill="#000000" font-family="sans-serif" font-size="14" lengthAdjust="spacing" textLength="112" x="154" y="445.5264">Testes Unit&#225;rios</text><text fill="#000000" font-family="sans-serif" font-size="14" lengthAdjust="spacing" textLength="118" x="329" y="427.2295">Testes por etapa</text><path d="M276,440.6797 L286,440.6797 C301,440.6797 301,422.3828 316,422.3828 L326,422.3828 " fill="none" style="stroke:#181818;stroke-width:1.0;"/><text fill="#000000" font-family="sans-serif" font-size="14" lengthAdjust="spacing" textLength="126" x="329" y="445.5264">Testes integrados</text><path d="M276,440.6797 L286,440.6797 C301,440.6797 301,440.6797 316,440.6797 L326,440.6797 " fill="none" style="stroke:#181818;stroke-width:1.0;"/><text fill="#000000" font-family="sans-serif" font-size="14" lengthAdjust="spacing" textLength="217" x="329" y="463.8232">Testes de aceita&#231;&#227;o do usu&#225;rio</text><path d="M276,440.6797 L286,440.6797 C301,440.6797 301,458.9766 316,458.9766 L326,458.9766 " fill="none" style="stroke:#181818;stroke-width:1.0;"/><path d="M94,413.2344 L104,413.2344 C119,413.2344 119,440.6797 134,440.6797 L144,440.6797 " fill="none" style="stroke:#181818;stroke-width:1.0;"/><rect fill="#D3D3D3" height="36.2969" rx="12.5" ry="12.5" style="stroke:#181818;stroke-width:1.5;" width="181" x="144" y="486.5703"/><text fill="#000000" font-family="sans-serif" font-size="14" lengthAdjust="spacing" textLength="161" x="154" y="509.5654">Implementa&#231;&#227;o (PROD)</text><text fill="#000000" font-family="sans-serif" font-size="14" lengthAdjust="spacing" textLength="159" x="378" y="482.1201">Migrar o job para PROD</text><path d="M325,504.7188 L335,504.7188 C350,504.7188 350,477.2734 365,477.2734 L375,477.2734 " fill="none" style="stroke:#181818;stroke-width:1.0;"/><text fill="#000000" font-family="sans-serif" font-size="14" lengthAdjust="spacing" textLength="286" x="378" y="500.417">Executar 1 ou + ciclos de carga completa</text><path d="M325,504.7188 L335,504.7188 C350,504.7188 350,495.5703 365,495.5703 L375,495.5703 " fill="none" style="stroke:#181818;stroke-width:1.0;"/><text fill="#000000" font-family="sans-serif" font-size="14" lengthAdjust="spacing" textLength="303" x="378" y="518.7139">Executar 1 ou + ciclos de carga incremental</text><path d="M325,504.7188 L335,504.7188 C350,504.7188 350,513.8672 365,513.8672 L375,513.8672 " fill="none" style="stroke:#181818;stroke-width:1.0;"/><text fill="#000000" font-family="sans-serif" font-size="14" lengthAdjust="spacing" textLength="293" x="378" y="537.0107">Monitorar desempenho + ajustar recursos</text><path d="M325,504.7188 L335,504.7188 C350,504.7188 350,532.1641 365,532.1641 L375,532.1641 " fill="none" style="stroke:#181818;stroke-width:1.0;"/><path d="M94,413.2344 L104,413.2344 C119,413.2344 119,504.7188 134,504.7188 L144,504.7188 " fill="none" style="stroke:#181818;stroke-width:1.0;"/><rect fill="#D3D3D3" height="36.2969" rx="12.5" ry="12.5" style="stroke:#181818;stroke-width:1.5;" width="126" x="144" y="550.6094"/><text fill="#000000" font-family="sans-serif" font-size="14" lengthAdjust="spacing" textLength="106" x="154" y="573.6045">Documenta&#231;&#227;o</text><text fill="#000000" font-family="sans-serif" font-size="14" lengthAdjust="spacing" textLength="263" x="323" y="555.3076">Garantir: compreens&#227;o e manuten&#231;&#227;o</text><path d="M270,568.7578 L280,568.7578 C295,568.7578 295,550.4609 310,550.4609 L320,550.4609 " fill="none" style="stroke:#181818;stroke-width:1.0;"/><text fill="#000000" font-family="sans-serif" font-size="14" lengthAdjust="spacing" textLength="123" x="323" y="573.6045">Futuras melhorias</text><path d="M270,568.7578 L280,568.7578 C295,568.7578 295,568.7578 310,568.7578 L320,568.7578 " fill="none" style="stroke:#181818;stroke-width:1.0;"/><text fill="#000000" font-family="sans-serif" font-size="14" lengthAdjust="spacing" textLength="273" x="323" y="591.9014">Referencias para solu&#231;&#227;o de problemas</text><path d="M270,568.7578 L280,568.7578 C295,568.7578 295,587.0547 310,587.0547 L320,587.0547 " fill="none" style="stroke:#181818;stroke-width:1.0;"/><path d="M94,413.2344 L104,413.2344 C119,413.2344 119,568.7578 134,568.7578 L144,568.7578 " fill="none" style="stroke:#181818;stroke-width:1.0;"/><rect fill="#D3D3D3" height="36.2969" rx="12.5" ry="12.5" style="stroke:#181818;stroke-width:1.5;" width="228" x="144" y="632.9453"/><text fill="#000000" font-family="sans-serif" font-size="14" lengthAdjust="spacing" textLength="208" x="154" y="655.9404">Monitoramento e Manuten&#231;&#227;o</text><text fill="#000000" font-family="sans-serif" font-size="14" lengthAdjust="spacing" textLength="103" x="425" y="610.1982">Monitorar: logs</text><path d="M372,651.0938 L382,651.0938 C397,651.0938 397,605.3516 412,605.3516 L422,605.3516 " fill="none" style="stroke:#181818;stroke-width:1.0;"/><text fill="#000000" font-family="sans-serif" font-size="14" lengthAdjust="spacing" textLength="158" x="425" y="628.4951">Corrigir: falhar, lentid&#227;o</text><path d="M372,651.0938 L382,651.0938 C397,651.0938 397,623.6484 412,623.6484 L422,623.6484 " fill="none" style="stroke:#181818;stroke-width:1.0;"/><text fill="#000000" font-family="sans-serif" font-size="14" lengthAdjust="spacing" textLength="164" x="425" y="646.792">Ajustar: transforma&#231;&#245;es</text><path d="M372,651.0938 L382,651.0938 C397,651.0938 397,641.9453 412,641.9453 L422,641.9453 " fill="none" style="stroke:#181818;stroke-width:1.0;"/><text fill="#000000" font-family="sans-serif" font-size="14" lengthAdjust="spacing" textLength="145" x="425" y="665.0889">Ajustar: novos dados</text><path d="M372,651.0938 L382,651.0938 C397,651.0938 397,660.2422 412,660.2422 L422,660.2422 " fill="none" style="stroke:#181818;stroke-width:1.0;"/><text fill="#000000" font-family="sans-serif" font-size="14" lengthAdjust="spacing" textLength="100" x="425" y="683.3857">Ajustar: testes</text><path d="M372,651.0938 L382,651.0938 C397,651.0938 397,678.5391 412,678.5391 L422,678.5391 " fill="none" style="stroke:#181818;stroke-width:1.0;"/><text fill="#000000" font-family="sans-serif" font-size="14" lengthAdjust="spacing" textLength="180" x="425" y="701.6826">Notifica&#231;&#245;es: emails, slack</text><path d="M372,651.0938 L382,651.0938 C397,651.0938 397,696.8359 412,696.8359 L422,696.8359 " fill="none" style="stroke:#181818;stroke-width:1.0;"/><path d="M94,413.2344 L104,413.2344 C119,413.2344 119,651.0938 134,651.0938 L144,651.0938 " fill="none" style="stroke:#181818;stroke-width:1.0;"/><rect fill="#D3D3D3" height="36.2969" rx="12.5" ry="12.5" style="stroke:#181818;stroke-width:1.5;" width="213" x="144" y="724.4297"/><text fill="#000000" font-family="sans-serif" font-size="14" lengthAdjust="spacing" textLength="193" x="154" y="747.4248">Auditoria, QA e Refinamento</text><text fill="#000000" font-family="sans-serif" font-size="14" lengthAdjust="spacing" textLength="90" x="410" y="719.9795">Data Lineage</text><path d="M357,742.5781 L367,742.5781 C382,742.5781 382,715.1328 397,715.1328 L407,715.1328 " fill="none" style="stroke:#181818;stroke-width:1.0;"/><text fill="#000000" font-family="sans-serif" font-size="14" lengthAdjust="spacing" textLength="231" x="410" y="738.2764">Conformidade com regulamentos</text><path d="M357,742.5781 L367,742.5781 C382,742.5781 382,733.4297 397,733.4297 L407,733.4297 " fill="none" style="stroke:#181818;stroke-width:1.0;"/><text fill="#000000" font-family="sans-serif" font-size="14" lengthAdjust="spacing" textLength="228" x="410" y="756.5732">QA: detectar e corrigir problemas</text><path d="M357,742.5781 L367,742.5781 C382,742.5781 382,751.7266 397,751.7266 L407,751.7266 " fill="none" style="stroke:#181818;stroke-width:1.0;"/><text fill="#000000" font-family="sans-serif" font-size="14" lengthAdjust="spacing" textLength="130" x="410" y="774.8701">Refinar o processo</text><path d="M357,742.5781 L367,742.5781 C382,742.5781 382,770.0234 397,770.0234 L407,770.0234 " fill="none" style="stroke:#181818;stroke-width:1.0;"/><path d="M94,413.2344 L104,413.2344 C119,413.2344 119,742.5781 134,742.5781 L144,742.5781 " fill="none" style="stroke:#181818;stroke-width:1.0;"/><text fill="#888888" font-family="sans-serif" font-size="10" lengthAdjust="spacing" textLength="293" x="328" y="788.4541">Dispon&#237;vel em: https://github.com/acnaweb/data-engineering</text><!--SRC=[XLLBKnj74BxhLtGv5x1vsjZbseij4128H30IpY7bShLsMwk1sUdrF6Jmlw5ooCcdL7w1_bXwTdPvwP0IfKBzxg-_xldeF5fVALDKMFTwNdbDyE9mCeJ3uUH5RyRioS90kPhDykU2D52LmTpxscNRswNoyp3TohdQnjpWTvfk5-Xnaqof395LfkprNlxvoz5x-Hnz0HYg6S71RQv9vA8OgdBkZotUVe4B-XQKKvuT50HdL2x_oHK3GTyixxHo90ully99GSQhcShHPePoSauLA0xoLrkElx4I2uw20JbL6Ye6NA4oHspyMFreumoaJd0ShBXaGCxRu8D5oVSje6vY9iFVpa_4u0eDQLp9iW6UgfgXMjxTgAf9AeMLc5mdgkPC6aFjLKNR- -ZpUPjTOMcnQW8AUWAkH2EtgdI22fbSuGfUvrfAkcgRxNfD0Gwi4dIWue8qGutIrk0Fu01pHHQju8ojD88mnEiE4vefeopKgYOj0um5210i_GixgCjblAKMEaai_2d9fm3ZHfX17Wk0vKzJgBphgX_pUcf0BXXEUIeyGbjyHqiR4cxcqt-M2lcMzDUmDaLJu7eNErbaC5Ct4dr1rYt_uYULPn2PAuqAULklV4w2vAlKwe5Gm6BkLy0KzCWiM2zKIvwcm6UnPsHjWm5siQsglOlvpbXYTumvD0jbsKJBJ21SH98uln6PKxJ4i6ZSZ6s5ox-bXwoLKWLesAXA_KYA3t1-Sl8XQaLjILZHB0TQ0Oa5cgRO5NLSmQV2IlZbbtSo5TSgPA4yy0mMg8DCw3aU4ocO75mQrRYnwofin3LR88yrFf4gOR1aAvuPntfpKZvr594DBZH1LxAULBMc1k1aktP-yVkW7Vz8IMmB35SyJUIDoXRm6yg3y11suonUGQvodSv8iupDXcdgnlP_rihaDbMXszGo4iynUo4qgMeoSnO_l0hnU0h6UR2ELq4SS1uUkacnZgLokL_2fbYK9JAHnB965PhWoJmoFMeEaWoFz9oxqNsLSo8yR4w2IpWurg75jhbEKy4GLwlfkkWEncWbuNsV6MWkstG7RAqg6_gZbdsLrOm7kBZtwYSOCl2FIVtl_TftQiEBYF83FnuS6w8auHcduvv2o66MowsTt0UD-VLAJ_rGn8eLRi2dllHq4LVrOIlQAp-KKuObTVsOM6DwD6G6SKM2JZuEaisdVjnRJtaSRxHA43m2jvk4P8kSRDy4OVH7afUqUqtZYVQNes5pgnGRsDrwlVDwR-lDscGUu8YciFiMTjzbUplPpblOlvX0LA_trexFXulNtOajP5MjcWOl4TPxfxX0k0WclYWPn5zhaz4wZ0yxuUFpqplzF4f6y2lxSSs-CNwtjxclF8p9Ic7mUTIJ4uT1Ut7DkP17EuFBoT7c-zuGJHa4Efc3wHsm9B2teXl_1m00]--></g></svg>