<?xml version="1.0" encoding="us-ascii" standalone="no"?><svg xmlns="http://www.w3.org/2000/svg" xmlns:xlink="http://www.w3.org/1999/xlink" contentStyleType="text/css" height="767px" preserveAspectRatio="none" style="width:952px;height:767px;background:#FFFFFF;" version="1.1" viewBox="0 0 952 767" width="952px" zoomAndPan="magnify"><defs/><g><text fill="#000000" font-family="sans-serif" font-size="14" font-weight="bold" lengthAdjust="spacing" textLength="61" x="444" y="32.9951">ETL ELT</text><rect fill="#F8F8FF" height="36.2969" rx="12.5" ry="12.5" style="stroke:#181818;stroke-width:1.5;" width="84" x="10" y="376.7891"/><text fill="#000000" font-family="sans-serif" font-size="14" lengthAdjust="spacing" textLength="64" x="20" y="399.7842">Life Cycle</text><rect fill="#D3D3D3" height="36.2969" rx="12.5" ry="12.5" style="stroke:#181818;stroke-width:1.5;" width="242" x="144" y="84.0391"/><text fill="#000000" font-family="sans-serif" font-size="14" lengthAdjust="spacing" textLength="222" x="154" y="107.0342">Requisitos de Neg&#243;cio e An&#225;lise</text><text fill="#000000" font-family="sans-serif" font-size="14" lengthAdjust="spacing" textLength="501" x="439" y="61.292">Identificar:necessidade de processamento de DesignedDomainFontSize</text><path d="M386,102.1875 L396,102.1875 C411,102.1875 411,56.4453 426,56.4453 L436,56.4453 " fill="none" style="stroke:#181818;stroke-width:1.0;"/><text fill="#000000" font-family="sans-serif" font-size="14" lengthAdjust="spacing" textLength="248" x="439" y="79.5889">Data sources: estrutura e qualidade</text><path d="M386,102.1875 L396,102.1875 C411,102.1875 411,74.7422 426,74.7422 L436,74.7422 " fill="none" style="stroke:#181818;stroke-width:1.0;"/><text fill="#000000" font-family="sans-serif" font-size="14" lengthAdjust="spacing" textLength="387" x="439" y="97.8857">KPIs: janela de processamento, tempo m&#225;ximo de carga</text><path d="M386,102.1875 L396,102.1875 C411,102.1875 411,93.0391 426,93.0391 L436,93.0391 " fill="none" style="stroke:#181818;stroke-width:1.0;"/><text fill="#000000" font-family="sans-serif" font-size="14" lengthAdjust="spacing" textLength="144" x="439" y="116.1826">Tipo: Realtime/Batch</text><path d="M386,102.1875 L396,102.1875 C411,102.1875 411,111.3359 426,111.3359 L436,111.3359 " fill="none" style="stroke:#181818;stroke-width:1.0;"/><text fill="#000000" font-family="sans-serif" font-size="14" lengthAdjust="spacing" textLength="188" x="439" y="134.4795">Diagrama de componentes</text><path d="M386,102.1875 L396,102.1875 C411,102.1875 411,129.6328 426,129.6328 L436,129.6328 " fill="none" style="stroke:#181818;stroke-width:1.0;"/><text fill="#000000" font-family="sans-serif" font-size="14" lengthAdjust="spacing" textLength="163" x="439" y="152.7764">Diagrama de sequencia</text><path d="M386,102.1875 L396,102.1875 C411,102.1875 411,147.9297 426,147.9297 L436,147.9297 " fill="none" style="stroke:#181818;stroke-width:1.0;"/><path d="M94,394.9375 L104,394.9375 C119,394.9375 119,102.1875 134,102.1875 L144,102.1875 " fill="none" style="stroke:#181818;stroke-width:1.0;"/><rect fill="#D3D3D3" height="36.2969" rx="12.5" ry="12.5" style="stroke:#181818;stroke-width:1.5;" width="180" x="144" y="202.9688"/><text fill="#000000" font-family="sans-serif" font-size="14" lengthAdjust="spacing" textLength="160" x="154" y="225.9639">Planejamento e Design</text><text fill="#000000" font-family="sans-serif" font-size="14" lengthAdjust="spacing" textLength="354" x="377" y="171.0732">Criar: modelo para DW ou hierarquia para Data Lake</text><path d="M324,221.1172 L334,221.1172 C349,221.1172 349,166.2266 364,166.2266 L374,166.2266 " fill="none" style="stroke:#181818;stroke-width:1.0;"/><text fill="#000000" font-family="sans-serif" font-size="14" lengthAdjust="spacing" textLength="423" x="377" y="189.3701">Definir pipeline de dados: mapeamento entre source e target</text><path d="M324,221.1172 L334,221.1172 C349,221.1172 349,184.5234 364,184.5234 L374,184.5234 " fill="none" style="stroke:#181818;stroke-width:1.0;"/><text fill="#000000" font-family="sans-serif" font-size="14" lengthAdjust="spacing" textLength="140" x="377" y="207.667">Source: criar &#237;ndices</text><path d="M324,221.1172 L334,221.1172 C349,221.1172 349,202.8203 364,202.8203 L374,202.8203 " fill="none" style="stroke:#181818;stroke-width:1.0;"/><text fill="#000000" font-family="sans-serif" font-size="14" lengthAdjust="spacing" textLength="391" x="377" y="225.9639">Arquitetura do Job: hardware, software, rede, link (banda)</text><path d="M324,221.1172 L334,221.1172 C349,221.1172 349,221.1172 364,221.1172 L374,221.1172 " fill="none" style="stroke:#181818;stroke-width:1.0;"/><text fill="#000000" font-family="sans-serif" font-size="14" lengthAdjust="spacing" textLength="146" x="377" y="244.2607">Software: fixar vers&#227;o</text><path d="M324,221.1172 L334,221.1172 C349,221.1172 349,239.4141 364,239.4141 L374,239.4141 " fill="none" style="stroke:#181818;stroke-width:1.0;"/><text fill="#000000" font-family="sans-serif" font-size="14" lengthAdjust="spacing" textLength="129" x="377" y="262.5576">Definir: ETL ou ELT</text><path d="M324,221.1172 L334,221.1172 C349,221.1172 349,257.7109 364,257.7109 L374,257.7109 " fill="none" style="stroke:#181818;stroke-width:1.0;"/><text fill="#000000" font-family="sans-serif" font-size="14" lengthAdjust="spacing" textLength="171" x="377" y="280.8545">Schema + Data Contract</text><path d="M324,221.1172 L334,221.1172 C349,221.1172 349,276.0078 364,276.0078 L374,276.0078 " fill="none" style="stroke:#181818;stroke-width:1.0;"/><path d="M94,394.9375 L104,394.9375 C119,394.9375 119,221.1172 134,221.1172 L144,221.1172 " fill="none" style="stroke:#181818;stroke-width:1.0;"/><rect fill="#D3D3D3" height="36.2969" rx="12.5" ry="12.5" style="stroke:#181818;stroke-width:1.5;" width="187" x="144" y="312.75"/><text fill="#000000" font-family="sans-serif" font-size="14" lengthAdjust="spacing" textLength="167" x="154" y="335.7451">Desenvolvimento do Job</text><text fill="#000000" font-family="sans-serif" font-size="14" lengthAdjust="spacing" textLength="128" x="384" y="299.1514">Definir: ferramenta</text><path d="M331,330.8984 L341,330.8984 C356,330.8984 356,294.3047 371,294.3047 L381,294.3047 " fill="none" style="stroke:#181818;stroke-width:1.0;"/><text fill="#000000" font-family="sans-serif" font-size="14" lengthAdjust="spacing" textLength="133" x="384" y="317.4482">Scripts ou No Code</text><path d="M331,330.8984 L341,330.8984 C356,330.8984 356,312.6016 371,312.6016 L381,312.6016 " fill="none" style="stroke:#181818;stroke-width:1.0;"/><text fill="#000000" font-family="sans-serif" font-size="14" lengthAdjust="spacing" textLength="196" x="384" y="335.7451">Environment: dev, test, prod</text><path d="M331,330.8984 L341,330.8984 C356,330.8984 356,330.8984 371,330.8984 L381,330.8984 " fill="none" style="stroke:#181818;stroke-width:1.0;"/><text fill="#000000" font-family="sans-serif" font-size="14" lengthAdjust="spacing" textLength="388" x="384" y="354.042">Implementar: transforma&#231;&#227;o, regras de arredondamento</text><path d="M331,330.8984 L341,330.8984 C356,330.8984 356,349.1953 371,349.1953 L381,349.1953 " fill="none" style="stroke:#181818;stroke-width:1.0;"/><text fill="#000000" font-family="sans-serif" font-size="14" lengthAdjust="spacing" textLength="163" x="384" y="372.3389">Tem anonimiza&#231;&#227;o? PII?</text><path d="M331,330.8984 L341,330.8984 C356,330.8984 356,367.4922 371,367.4922 L381,367.4922 " fill="none" style="stroke:#181818;stroke-width:1.0;"/><path d="M94,394.9375 L104,394.9375 C119,394.9375 119,330.8984 134,330.8984 L144,330.8984 " fill="none" style="stroke:#181818;stroke-width:1.0;"/><rect fill="#D3D3D3" height="36.2969" rx="12.5" ry="12.5" style="stroke:#181818;stroke-width:1.5;" width="132" x="144" y="385.9375"/><text fill="#000000" font-family="sans-serif" font-size="14" lengthAdjust="spacing" textLength="112" x="154" y="408.9326">Testes Unit&#225;rios</text><text fill="#000000" font-family="sans-serif" font-size="14" lengthAdjust="spacing" textLength="118" x="329" y="390.6357">Testes por etapa</text><path d="M276,404.0859 L286,404.0859 C301,404.0859 301,385.7891 316,385.7891 L326,385.7891 " fill="none" style="stroke:#181818;stroke-width:1.0;"/><text fill="#000000" font-family="sans-serif" font-size="14" lengthAdjust="spacing" textLength="126" x="329" y="408.9326">Testes integrados</text><path d="M276,404.0859 L286,404.0859 C301,404.0859 301,404.0859 316,404.0859 L326,404.0859 " fill="none" style="stroke:#181818;stroke-width:1.0;"/><text fill="#000000" font-family="sans-serif" font-size="14" lengthAdjust="spacing" textLength="217" x="329" y="427.2295">Testes de aceita&#231;&#227;o do usu&#225;rio</text><path d="M276,404.0859 L286,404.0859 C301,404.0859 301,422.3828 316,422.3828 L326,422.3828 " fill="none" style="stroke:#181818;stroke-width:1.0;"/><path d="M94,394.9375 L104,394.9375 C119,394.9375 119,404.0859 134,404.0859 L144,404.0859 " fill="none" style="stroke:#181818;stroke-width:1.0;"/><rect fill="#D3D3D3" height="36.2969" rx="12.5" ry="12.5" style="stroke:#181818;stroke-width:1.5;" width="181" x="144" y="449.9766"/><text fill="#000000" font-family="sans-serif" font-size="14" lengthAdjust="spacing" textLength="161" x="154" y="472.9717">Implementa&#231;&#227;o (PROD)</text><text fill="#000000" font-family="sans-serif" font-size="14" lengthAdjust="spacing" textLength="159" x="378" y="445.5264">Migrar o job para PROD</text><path d="M325,468.125 L335,468.125 C350,468.125 350,440.6797 365,440.6797 L375,440.6797 " fill="none" style="stroke:#181818;stroke-width:1.0;"/><text fill="#000000" font-family="sans-serif" font-size="14" lengthAdjust="spacing" textLength="286" x="378" y="463.8232">Executar 1 ou + ciclos de carga completa</text><path d="M325,468.125 L335,468.125 C350,468.125 350,458.9766 365,458.9766 L375,458.9766 " fill="none" style="stroke:#181818;stroke-width:1.0;"/><text fill="#000000" font-family="sans-serif" font-size="14" lengthAdjust="spacing" textLength="303" x="378" y="482.1201">Executar 1 ou + ciclos de carga incremental</text><path d="M325,468.125 L335,468.125 C350,468.125 350,477.2734 365,477.2734 L375,477.2734 " fill="none" style="stroke:#181818;stroke-width:1.0;"/><text fill="#000000" font-family="sans-serif" font-size="14" lengthAdjust="spacing" textLength="293" x="378" y="500.417">Monitorar desempenho + ajustar recursos</text><path d="M325,468.125 L335,468.125 C350,468.125 350,495.5703 365,495.5703 L375,495.5703 " fill="none" style="stroke:#181818;stroke-width:1.0;"/><path d="M94,394.9375 L104,394.9375 C119,394.9375 119,468.125 134,468.125 L144,468.125 " fill="none" style="stroke:#181818;stroke-width:1.0;"/><rect fill="#D3D3D3" height="36.2969" rx="12.5" ry="12.5" style="stroke:#181818;stroke-width:1.5;" width="126" x="144" y="514.0156"/><text fill="#000000" font-family="sans-serif" font-size="14" lengthAdjust="spacing" textLength="106" x="154" y="537.0107">Documenta&#231;&#227;o</text><text fill="#000000" font-family="sans-serif" font-size="14" lengthAdjust="spacing" textLength="263" x="323" y="518.7139">Garantir: compreens&#227;o e manuten&#231;&#227;o</text><path d="M270,532.1641 L280,532.1641 C295,532.1641 295,513.8672 310,513.8672 L320,513.8672 " fill="none" style="stroke:#181818;stroke-width:1.0;"/><text fill="#000000" font-family="sans-serif" font-size="14" lengthAdjust="spacing" textLength="123" x="323" y="537.0107">Futuras melhorias</text><path d="M270,532.1641 L280,532.1641 C295,532.1641 295,532.1641 310,532.1641 L320,532.1641 " fill="none" style="stroke:#181818;stroke-width:1.0;"/><text fill="#000000" font-family="sans-serif" font-size="14" lengthAdjust="spacing" textLength="273" x="323" y="555.3076">Referencias para solu&#231;&#227;o de problemas</text><path d="M270,532.1641 L280,532.1641 C295,532.1641 295,550.4609 310,550.4609 L320,550.4609 " fill="none" style="stroke:#181818;stroke-width:1.0;"/><path d="M94,394.9375 L104,394.9375 C119,394.9375 119,532.1641 134,532.1641 L144,532.1641 " fill="none" style="stroke:#181818;stroke-width:1.0;"/><rect fill="#D3D3D3" height="36.2969" rx="12.5" ry="12.5" style="stroke:#181818;stroke-width:1.5;" width="228" x="144" y="596.3516"/><text fill="#000000" font-family="sans-serif" font-size="14" lengthAdjust="spacing" textLength="208" x="154" y="619.3467">Monitoramento e Manuten&#231;&#227;o</text><text fill="#000000" font-family="sans-serif" font-size="14" lengthAdjust="spacing" textLength="103" x="425" y="573.6045">Monitorar: logs</text><path d="M372,614.5 L382,614.5 C397,614.5 397,568.7578 412,568.7578 L422,568.7578 " fill="none" style="stroke:#181818;stroke-width:1.0;"/><text fill="#000000" font-family="sans-serif" font-size="14" lengthAdjust="spacing" textLength="158" x="425" y="591.9014">Corrigir: falhar, lentid&#227;o</text><path d="M372,614.5 L382,614.5 C397,614.5 397,587.0547 412,587.0547 L422,587.0547 " fill="none" style="stroke:#181818;stroke-width:1.0;"/><text fill="#000000" font-family="sans-serif" font-size="14" lengthAdjust="spacing" textLength="164" x="425" y="610.1982">Ajustar: transforma&#231;&#245;es</text><path d="M372,614.5 L382,614.5 C397,614.5 397,605.3516 412,605.3516 L422,605.3516 " fill="none" style="stroke:#181818;stroke-width:1.0;"/><text fill="#000000" font-family="sans-serif" font-size="14" lengthAdjust="spacing" textLength="145" x="425" y="628.4951">Ajustar: novos dados</text><path d="M372,614.5 L382,614.5 C397,614.5 397,623.6484 412,623.6484 L422,623.6484 " fill="none" style="stroke:#181818;stroke-width:1.0;"/><text fill="#000000" font-family="sans-serif" font-size="14" lengthAdjust="spacing" textLength="100" x="425" y="646.792">Ajustar: testes</text><path d="M372,614.5 L382,614.5 C397,614.5 397,641.9453 412,641.9453 L422,641.9453 " fill="none" style="stroke:#181818;stroke-width:1.0;"/><text fill="#000000" font-family="sans-serif" font-size="14" lengthAdjust="spacing" textLength="180" x="425" y="665.0889">Notifica&#231;&#245;es: emails, slack</text><path d="M372,614.5 L382,614.5 C397,614.5 397,660.2422 412,660.2422 L422,660.2422 " fill="none" style="stroke:#181818;stroke-width:1.0;"/><path d="M94,394.9375 L104,394.9375 C119,394.9375 119,614.5 134,614.5 L144,614.5 " fill="none" style="stroke:#181818;stroke-width:1.0;"/><rect fill="#D3D3D3" height="36.2969" rx="12.5" ry="12.5" style="stroke:#181818;stroke-width:1.5;" width="213" x="144" y="687.8359"/><text fill="#000000" font-family="sans-serif" font-size="14" lengthAdjust="spacing" textLength="193" x="154" y="710.8311">Auditoria, QA e Refinamento</text><text fill="#000000" font-family="sans-serif" font-size="14" lengthAdjust="spacing" textLength="90" x="410" y="683.3857">Data Lineage</text><path d="M357,705.9844 L367,705.9844 C382,705.9844 382,678.5391 397,678.5391 L407,678.5391 " fill="none" style="stroke:#181818;stroke-width:1.0;"/><text fill="#000000" font-family="sans-serif" font-size="14" lengthAdjust="spacing" textLength="231" x="410" y="701.6826">Conformidade com regulamentos</text><path d="M357,705.9844 L367,705.9844 C382,705.9844 382,696.8359 397,696.8359 L407,696.8359 " fill="none" style="stroke:#181818;stroke-width:1.0;"/><text fill="#000000" font-family="sans-serif" font-size="14" lengthAdjust="spacing" textLength="228" x="410" y="719.9795">QA: detectar e corrigir problemas</text><path d="M357,705.9844 L367,705.9844 C382,705.9844 382,715.1328 397,715.1328 L407,715.1328 " fill="none" style="stroke:#181818;stroke-width:1.0;"/><text fill="#000000" font-family="sans-serif" font-size="14" lengthAdjust="spacing" textLength="130" x="410" y="738.2764">Refinar o processo</text><path d="M357,705.9844 L367,705.9844 C382,705.9844 382,733.4297 397,733.4297 L407,733.4297 " fill="none" style="stroke:#181818;stroke-width:1.0;"/><path d="M94,394.9375 L104,394.9375 C119,394.9375 119,705.9844 134,705.9844 L144,705.9844 " fill="none" style="stroke:#181818;stroke-width:1.0;"/><text fill="#888888" font-family="sans-serif" font-size="10" lengthAdjust="spacing" textLength="293" x="328" y="751.8604">Dispon&#237;vel em: https://github.com/acnaweb/data-engineering</text><!--SRC=[XLNDKXj93BxFKwYI2oJyBqcbvf8OZ5bOcoMsoHwsKbloZ3mMz7HFkdiSoDjGUyWffwrz0h_OggTdWE33bYaNxfO-IPy-gJyuZzQNhFCIgoJnx1N1YvFf44w6qnV9t1XF5lhiAgDNFvQaWCeK5jvNBjtTBTWlwjbEPifTp3H-fTbkZXwtIHUiYIph8abU_Vboy4u-Wyy0GvuJ7DzbYkHSBePSBFofnRlFCAOlDJlsna5ES475wf-C3H3qzEfUiIDnUFKNdEMaFSyvGvjgoiWvpb4SvA-o9lp6KYnCEEYJuq9JtZSbiXuOxIVyhSNfIvxWJ6t59GLotjQ-jYZnljIe6ine-DlbcHXSeoQ5Qr6sm5DP6IXNzxTSDa4biGAZwvGhaqfXg3oNj7k4FbkqqHaBYsK3AEm9kO96RltI2IkaCyOrlYwLf7JT5jlL6W6EBGixK9gSb84AfQp-7s1gM31PjC8pjgU1X27UT9pGd3LRgBWY9GqC2GWHHkeNTL0NItjBBNKIMFHJa8y0a-OmXIma0AiVEkUigweNudfgICuDd9kPw0Xj_XKjRGdStCV_BENoBU5lO6E6EiVD3ZjQf33dMq5VadMhlyrFcQSGb2k5YdXRhsn1mkJhMEgnIC1YvjV85FP8BurQSYkU9i5ds7Eojk40EspBbNSXteKHx4un9th9rkXWcGg5oo0IvxU2Sl9Mn6Mbg44IMCb8kxcn9Qw-Iq610Mb_CmLeXGqZ73HPjQAY4b0RpIL_YnxluVBixFrQJLC9IWwkDFlLlMNZEl_ck38Mo6E5Fvsog522vy-CGoePiO_n0ZkrgnlGjQYFfKNRZSlnx_ssXICMR0i6hiqi2Z1SjgJTKbOB7x0V-7mD6MSghe9ce9efKTHH_t_Mh3CRir1jQ27Ccn0zbrQN5Uc54J-yhiC25CgpsZgfUaqO9giVgubOfvAvx21fNKZA4kaWH1c54dNjIJyn7JHBnK59Qc5aA5fQnoHQQiRQHHwSKNNBRRDXPi8XhcVJLT4D_MWju4ETAIXJjE6EZRLSD1969JCdunMMQFxWrOiqFDFYlm-ZsrrhimmiF-hZqR4HIZoyC751HmXPhh9zbPCPLvZThDNKg_EGCUCMVEn9JUCmRay57vUKh2CigAj7XnpZufSUX8cfLVHn46q-ziBiUSf2UuDLfE09kLqd95hGPBlNHT4VI5x3xaKCQzPVZORDlc6ZON_dOE_WSEUNZUcYXW7DOFyDxBzD3_VIlJTmD9v2kDvCDaulXyk3RatcB0yCpsel29l9EIuHnhKEhq8AuTV6TBG9avFkyEaAISu_ZQ8H_6hyf3A-CNvxk7t47YPa9J7uD4faJM6jlBXc9fU7DuMhwM3xNJ94NTH2dVH19yT60jWxkPly1m00]--></g></svg>