<?xml version="1.0" encoding="us-ascii" standalone="no"?><svg xmlns="http://www.w3.org/2000/svg" xmlns:xlink="http://www.w3.org/1999/xlink" contentStyleType="text/css" height="748px" preserveAspectRatio="none" style="width:952px;height:748px;background:#FFFFFF;" version="1.1" viewBox="0 0 952 748" width="952px" zoomAndPan="magnify"><defs/><g><text fill="#000000" font-family="sans-serif" font-size="14" font-weight="bold" lengthAdjust="spacing" textLength="61" x="444" y="32.9951">ETL ELT</text><rect fill="#F8F8FF" height="36.2969" rx="12.5" ry="12.5" style="stroke:#181818;stroke-width:1.5;" width="84" x="10" y="367.6406"/><text fill="#000000" font-family="sans-serif" font-size="14" lengthAdjust="spacing" textLength="64" x="20" y="390.6357">Life Cycle</text><rect fill="#D3D3D3" height="36.2969" rx="12.5" ry="12.5" style="stroke:#181818;stroke-width:1.5;" width="242" x="144" y="84.0391"/><text fill="#000000" font-family="sans-serif" font-size="14" lengthAdjust="spacing" textLength="222" x="154" y="107.0342">Requisitos de Neg&#243;cio e An&#225;lise</text><text fill="#000000" font-family="sans-serif" font-size="14" lengthAdjust="spacing" textLength="501" x="439" y="61.292">Identificar:necessidade de processamento de DesignedDomainFontSize</text><path d="M386,102.1875 L396,102.1875 C411,102.1875 411,56.4453 426,56.4453 L436,56.4453 " fill="none" style="stroke:#181818;stroke-width:1.0;"/><text fill="#000000" font-family="sans-serif" font-size="14" lengthAdjust="spacing" textLength="248" x="439" y="79.5889">Data sources: estrutura e qualidade</text><path d="M386,102.1875 L396,102.1875 C411,102.1875 411,74.7422 426,74.7422 L436,74.7422 " fill="none" style="stroke:#181818;stroke-width:1.0;"/><text fill="#000000" font-family="sans-serif" font-size="14" lengthAdjust="spacing" textLength="387" x="439" y="97.8857">KPIs: janela de processamento, tempo m&#225;ximo de carga</text><path d="M386,102.1875 L396,102.1875 C411,102.1875 411,93.0391 426,93.0391 L436,93.0391 " fill="none" style="stroke:#181818;stroke-width:1.0;"/><text fill="#000000" font-family="sans-serif" font-size="14" lengthAdjust="spacing" textLength="144" x="439" y="116.1826">Tipo: Realtime/Batch</text><path d="M386,102.1875 L396,102.1875 C411,102.1875 411,111.3359 426,111.3359 L436,111.3359 " fill="none" style="stroke:#181818;stroke-width:1.0;"/><text fill="#000000" font-family="sans-serif" font-size="14" lengthAdjust="spacing" textLength="188" x="439" y="134.4795">Diagrama de componentes</text><path d="M386,102.1875 L396,102.1875 C411,102.1875 411,129.6328 426,129.6328 L436,129.6328 " fill="none" style="stroke:#181818;stroke-width:1.0;"/><text fill="#000000" font-family="sans-serif" font-size="14" lengthAdjust="spacing" textLength="163" x="439" y="152.7764">Diagrama de sequencia</text><path d="M386,102.1875 L396,102.1875 C411,102.1875 411,147.9297 426,147.9297 L436,147.9297 " fill="none" style="stroke:#181818;stroke-width:1.0;"/><path d="M94,385.7891 L104,385.7891 C119,385.7891 119,102.1875 134,102.1875 L144,102.1875 " fill="none" style="stroke:#181818;stroke-width:1.0;"/><rect fill="#D3D3D3" height="36.2969" rx="12.5" ry="12.5" style="stroke:#181818;stroke-width:1.5;" width="180" x="144" y="202.9688"/><text fill="#000000" font-family="sans-serif" font-size="14" lengthAdjust="spacing" textLength="160" x="154" y="225.9639">Planejamento e Design</text><text fill="#000000" font-family="sans-serif" font-size="14" lengthAdjust="spacing" textLength="354" x="377" y="171.0732">Criar: modelo para DW ou hierarquia para Data Lake</text><path d="M324,221.1172 L334,221.1172 C349,221.1172 349,166.2266 364,166.2266 L374,166.2266 " fill="none" style="stroke:#181818;stroke-width:1.0;"/><text fill="#000000" font-family="sans-serif" font-size="14" lengthAdjust="spacing" textLength="423" x="377" y="189.3701">Definir pipeline de dados: mapeamento entre source e target</text><path d="M324,221.1172 L334,221.1172 C349,221.1172 349,184.5234 364,184.5234 L374,184.5234 " fill="none" style="stroke:#181818;stroke-width:1.0;"/><text fill="#000000" font-family="sans-serif" font-size="14" lengthAdjust="spacing" textLength="140" x="377" y="207.667">Source: criar &#237;ndices</text><path d="M324,221.1172 L334,221.1172 C349,221.1172 349,202.8203 364,202.8203 L374,202.8203 " fill="none" style="stroke:#181818;stroke-width:1.0;"/><text fill="#000000" font-family="sans-serif" font-size="14" lengthAdjust="spacing" textLength="391" x="377" y="225.9639">Arquitetura do Job: hardware, software, rede, link (banda)</text><path d="M324,221.1172 L334,221.1172 C349,221.1172 349,221.1172 364,221.1172 L374,221.1172 " fill="none" style="stroke:#181818;stroke-width:1.0;"/><text fill="#000000" font-family="sans-serif" font-size="14" lengthAdjust="spacing" textLength="146" x="377" y="244.2607">Software: fixar vers&#227;o</text><path d="M324,221.1172 L334,221.1172 C349,221.1172 349,239.4141 364,239.4141 L374,239.4141 " fill="none" style="stroke:#181818;stroke-width:1.0;"/><text fill="#000000" font-family="sans-serif" font-size="14" lengthAdjust="spacing" textLength="129" x="377" y="262.5576">Definir: ETL ou ELT</text><path d="M324,221.1172 L334,221.1172 C349,221.1172 349,257.7109 364,257.7109 L374,257.7109 " fill="none" style="stroke:#181818;stroke-width:1.0;"/><text fill="#000000" font-family="sans-serif" font-size="14" lengthAdjust="spacing" textLength="171" x="377" y="280.8545">Schema + Data Contract</text><path d="M324,221.1172 L334,221.1172 C349,221.1172 349,276.0078 364,276.0078 L374,276.0078 " fill="none" style="stroke:#181818;stroke-width:1.0;"/><path d="M94,385.7891 L104,385.7891 C119,385.7891 119,221.1172 134,221.1172 L144,221.1172 " fill="none" style="stroke:#181818;stroke-width:1.0;"/><rect fill="#D3D3D3" height="36.2969" rx="12.5" ry="12.5" style="stroke:#181818;stroke-width:1.5;" width="187" x="144" y="312.75"/><text fill="#000000" font-family="sans-serif" font-size="14" lengthAdjust="spacing" textLength="167" x="154" y="335.7451">Desenvolvimento do Job</text><text fill="#000000" font-family="sans-serif" font-size="14" lengthAdjust="spacing" textLength="128" x="384" y="299.1514">Definir: ferramenta</text><path d="M331,330.8984 L341,330.8984 C356,330.8984 356,294.3047 371,294.3047 L381,294.3047 " fill="none" style="stroke:#181818;stroke-width:1.0;"/><text fill="#000000" font-family="sans-serif" font-size="14" lengthAdjust="spacing" textLength="133" x="384" y="317.4482">Scripts ou No Code</text><path d="M331,330.8984 L341,330.8984 C356,330.8984 356,312.6016 371,312.6016 L381,312.6016 " fill="none" style="stroke:#181818;stroke-width:1.0;"/><text fill="#000000" font-family="sans-serif" font-size="14" lengthAdjust="spacing" textLength="196" x="384" y="335.7451">Environment: dev, test, prod</text><path d="M331,330.8984 L341,330.8984 C356,330.8984 356,330.8984 371,330.8984 L381,330.8984 " fill="none" style="stroke:#181818;stroke-width:1.0;"/><text fill="#000000" font-family="sans-serif" font-size="14" lengthAdjust="spacing" textLength="388" x="384" y="354.042">Implementar: transforma&#231;&#227;o, regras de arredondamento</text><path d="M331,330.8984 L341,330.8984 C356,330.8984 356,349.1953 371,349.1953 L381,349.1953 " fill="none" style="stroke:#181818;stroke-width:1.0;"/><text fill="#000000" font-family="sans-serif" font-size="14" lengthAdjust="spacing" textLength="163" x="384" y="372.3389">Tem anonimiza&#231;&#227;o? PII?</text><path d="M331,330.8984 L341,330.8984 C356,330.8984 356,367.4922 371,367.4922 L381,367.4922 " fill="none" style="stroke:#181818;stroke-width:1.0;"/><path d="M94,385.7891 L104,385.7891 C119,385.7891 119,330.8984 134,330.8984 L144,330.8984 " fill="none" style="stroke:#181818;stroke-width:1.0;"/><rect fill="#D3D3D3" height="36.2969" rx="12.5" ry="12.5" style="stroke:#181818;stroke-width:1.5;" width="132" x="144" y="385.9375"/><text fill="#000000" font-family="sans-serif" font-size="14" lengthAdjust="spacing" textLength="112" x="154" y="408.9326">Testes Unit&#225;rios</text><text fill="#000000" font-family="sans-serif" font-size="14" lengthAdjust="spacing" textLength="118" x="329" y="390.6357">Testes por etapa</text><path d="M276,404.0859 L286,404.0859 C301,404.0859 301,385.7891 316,385.7891 L326,385.7891 " fill="none" style="stroke:#181818;stroke-width:1.0;"/><text fill="#000000" font-family="sans-serif" font-size="14" lengthAdjust="spacing" textLength="126" x="329" y="408.9326">Testes integrados</text><path d="M276,404.0859 L286,404.0859 C301,404.0859 301,404.0859 316,404.0859 L326,404.0859 " fill="none" style="stroke:#181818;stroke-width:1.0;"/><text fill="#000000" font-family="sans-serif" font-size="14" lengthAdjust="spacing" textLength="217" x="329" y="427.2295">Testes de aceita&#231;&#227;o do usu&#225;rio</text><path d="M276,404.0859 L286,404.0859 C301,404.0859 301,422.3828 316,422.3828 L326,422.3828 " fill="none" style="stroke:#181818;stroke-width:1.0;"/><path d="M94,385.7891 L104,385.7891 C119,385.7891 119,404.0859 134,404.0859 L144,404.0859 " fill="none" style="stroke:#181818;stroke-width:1.0;"/><rect fill="#D3D3D3" height="36.2969" rx="12.5" ry="12.5" style="stroke:#181818;stroke-width:1.5;" width="181" x="144" y="449.9766"/><text fill="#000000" font-family="sans-serif" font-size="14" lengthAdjust="spacing" textLength="161" x="154" y="472.9717">Implementa&#231;&#227;o (PROD)</text><text fill="#000000" font-family="sans-serif" font-size="14" lengthAdjust="spacing" textLength="159" x="378" y="445.5264">Migrar o job para PROD</text><path d="M325,468.125 L335,468.125 C350,468.125 350,440.6797 365,440.6797 L375,440.6797 " fill="none" style="stroke:#181818;stroke-width:1.0;"/><text fill="#000000" font-family="sans-serif" font-size="14" lengthAdjust="spacing" textLength="286" x="378" y="463.8232">Executar 1 ou + ciclos de carga completa</text><path d="M325,468.125 L335,468.125 C350,468.125 350,458.9766 365,458.9766 L375,458.9766 " fill="none" style="stroke:#181818;stroke-width:1.0;"/><text fill="#000000" font-family="sans-serif" font-size="14" lengthAdjust="spacing" textLength="303" x="378" y="482.1201">Executar 1 ou + ciclos de carga incremental</text><path d="M325,468.125 L335,468.125 C350,468.125 350,477.2734 365,477.2734 L375,477.2734 " fill="none" style="stroke:#181818;stroke-width:1.0;"/><text fill="#000000" font-family="sans-serif" font-size="14" lengthAdjust="spacing" textLength="293" x="378" y="500.417">Monitorar desempenho + ajustar recursos</text><path d="M325,468.125 L335,468.125 C350,468.125 350,495.5703 365,495.5703 L375,495.5703 " fill="none" style="stroke:#181818;stroke-width:1.0;"/><path d="M94,385.7891 L104,385.7891 C119,385.7891 119,468.125 134,468.125 L144,468.125 " fill="none" style="stroke:#181818;stroke-width:1.0;"/><rect fill="#D3D3D3" height="36.2969" rx="12.5" ry="12.5" style="stroke:#181818;stroke-width:1.5;" width="126" x="144" y="514.0156"/><text fill="#000000" font-family="sans-serif" font-size="14" lengthAdjust="spacing" textLength="106" x="154" y="537.0107">Documenta&#231;&#227;o</text><text fill="#000000" font-family="sans-serif" font-size="14" lengthAdjust="spacing" textLength="263" x="323" y="518.7139">Garantir: compreens&#227;o e manuten&#231;&#227;o</text><path d="M270,532.1641 L280,532.1641 C295,532.1641 295,513.8672 310,513.8672 L320,513.8672 " fill="none" style="stroke:#181818;stroke-width:1.0;"/><text fill="#000000" font-family="sans-serif" font-size="14" lengthAdjust="spacing" textLength="123" x="323" y="537.0107">Futuras melhorias</text><path d="M270,532.1641 L280,532.1641 C295,532.1641 295,532.1641 310,532.1641 L320,532.1641 " fill="none" style="stroke:#181818;stroke-width:1.0;"/><text fill="#000000" font-family="sans-serif" font-size="14" lengthAdjust="spacing" textLength="273" x="323" y="555.3076">Referencias para solu&#231;&#227;o de problemas</text><path d="M270,532.1641 L280,532.1641 C295,532.1641 295,550.4609 310,550.4609 L320,550.4609 " fill="none" style="stroke:#181818;stroke-width:1.0;"/><path d="M94,385.7891 L104,385.7891 C119,385.7891 119,532.1641 134,532.1641 L144,532.1641 " fill="none" style="stroke:#181818;stroke-width:1.0;"/><rect fill="#D3D3D3" height="36.2969" rx="12.5" ry="12.5" style="stroke:#181818;stroke-width:1.5;" width="228" x="144" y="587.2031"/><text fill="#000000" font-family="sans-serif" font-size="14" lengthAdjust="spacing" textLength="208" x="154" y="610.1982">Monitoramento e Manuten&#231;&#227;o</text><text fill="#000000" font-family="sans-serif" font-size="14" lengthAdjust="spacing" textLength="103" x="425" y="573.6045">Monitorar: logs</text><path d="M372,605.3516 L382,605.3516 C397,605.3516 397,568.7578 412,568.7578 L422,568.7578 " fill="none" style="stroke:#181818;stroke-width:1.0;"/><text fill="#000000" font-family="sans-serif" font-size="14" lengthAdjust="spacing" textLength="158" x="425" y="591.9014">Corrigir: falhar, lentid&#227;o</text><path d="M372,605.3516 L382,605.3516 C397,605.3516 397,587.0547 412,587.0547 L422,587.0547 " fill="none" style="stroke:#181818;stroke-width:1.0;"/><text fill="#000000" font-family="sans-serif" font-size="14" lengthAdjust="spacing" textLength="164" x="425" y="610.1982">Ajustar: transforma&#231;&#245;es</text><path d="M372,605.3516 L382,605.3516 C397,605.3516 397,605.3516 412,605.3516 L422,605.3516 " fill="none" style="stroke:#181818;stroke-width:1.0;"/><text fill="#000000" font-family="sans-serif" font-size="14" lengthAdjust="spacing" textLength="145" x="425" y="628.4951">Ajustar: novos dados</text><path d="M372,605.3516 L382,605.3516 C397,605.3516 397,623.6484 412,623.6484 L422,623.6484 " fill="none" style="stroke:#181818;stroke-width:1.0;"/><text fill="#000000" font-family="sans-serif" font-size="14" lengthAdjust="spacing" textLength="100" x="425" y="646.792">Ajustar: testes</text><path d="M372,605.3516 L382,605.3516 C397,605.3516 397,641.9453 412,641.9453 L422,641.9453 " fill="none" style="stroke:#181818;stroke-width:1.0;"/><path d="M94,385.7891 L104,385.7891 C119,385.7891 119,605.3516 134,605.3516 L144,605.3516 " fill="none" style="stroke:#181818;stroke-width:1.0;"/><rect fill="#D3D3D3" height="36.2969" rx="12.5" ry="12.5" style="stroke:#181818;stroke-width:1.5;" width="213" x="144" y="669.5391"/><text fill="#000000" font-family="sans-serif" font-size="14" lengthAdjust="spacing" textLength="193" x="154" y="692.5342">Auditoria, QA e Refinamento</text><text fill="#000000" font-family="sans-serif" font-size="14" lengthAdjust="spacing" textLength="90" x="410" y="665.0889">Data Lineage</text><path d="M357,687.6875 L367,687.6875 C382,687.6875 382,660.2422 397,660.2422 L407,660.2422 " fill="none" style="stroke:#181818;stroke-width:1.0;"/><text fill="#000000" font-family="sans-serif" font-size="14" lengthAdjust="spacing" textLength="231" x="410" y="683.3857">Conformidade com regulamentos</text><path d="M357,687.6875 L367,687.6875 C382,687.6875 382,678.5391 397,678.5391 L407,678.5391 " fill="none" style="stroke:#181818;stroke-width:1.0;"/><text fill="#000000" font-family="sans-serif" font-size="14" lengthAdjust="spacing" textLength="228" x="410" y="701.6826">QA: detectar e corrigir problemas</text><path d="M357,687.6875 L367,687.6875 C382,687.6875 382,696.8359 397,696.8359 L407,696.8359 " fill="none" style="stroke:#181818;stroke-width:1.0;"/><text fill="#000000" font-family="sans-serif" font-size="14" lengthAdjust="spacing" textLength="130" x="410" y="719.9795">Refinar o processo</text><path d="M357,687.6875 L367,687.6875 C382,687.6875 382,715.1328 397,715.1328 L407,715.1328 " fill="none" style="stroke:#181818;stroke-width:1.0;"/><path d="M94,385.7891 L104,385.7891 C119,385.7891 119,687.6875 134,687.6875 L144,687.6875 " fill="none" style="stroke:#181818;stroke-width:1.0;"/><text fill="#888888" font-family="sans-serif" font-size="10" lengthAdjust="spacing" textLength="293" x="328" y="733.5635">Dispon&#237;vel em: https://github.com/acnaweb/data-engineering</text><!--SRC=[XLLDRzj64BtpLmoIYvtukquGy9B8bkNQbL95ajD34HGZSaIDG-uo-w7O-JT63pdbLFGNw8zrbalQZdKeP0ZMScRUcxTlXk-iG-CgLdc5TP8uTYN1ixFP4Cw6isV9Gcj71lfiQwtMFrPK0bKfB9shRRg_Nx1R-lbUfgjzp1H-fVb-ZWvtIHMiY0oh8abU_Fbyy4O-Wqy0GruGdDvc9ScvF1XoiNJd1cy_mOI-UBRij8MSu3qLwtyora3GK-kxaYr9mek_u28dvNZ16PfKKKRMSewI87-rqU4tLXAXmq6VB1UAyhwkaDL0ApVbRssTll04gxsHb1J8EkETDoXuNpoMJSqO-DluGWAkKL696oWxuAYgDLJhknkk6b0XLc1CdN6jKsaCIySLxP-WovOjEcDXi6eAYdeYhbGZk_dGYYgaCiODlSQbKBfkc-rwZGLE3OiwKEcSIWqrIblzFq1xM38PDA8pjgT1X25-xZIX1IisK7DDfLnW8212QEbVt44TbdA6Mka4MFnJa8i5firX2baW0EiVAkUiwweNS1qr8kSQBlLSV8Gc_ug6TgJSmiN_3ENoBV2VOMkEAiVjhdQCI671Dr9zHSQk_zO_CKyXE5SQ5VEsMTcIHCcNiTLJiO31p6s8AUgHMkbonQrv6e9FQY_8c4O3x6eRhfqDUE-rrEuSSwPMRBGAaQb8k0eciMudE2TlJLpL9JMLfAmmKdQXJONhxz9GK42klva2DAA65WqQLgsfg09KMd75tsB6MnXVNBpTw6ace6JXIh5RtndMjijlZcjjW1pM-DCfYmi5F7yI7AXan2xY1NMyzKtH3TI7rcBirdZoUx-zmX5BRGCQhlKy6Z0yR4MxeSoB7d0Oz7m96MTbN0NDG3LJKb8d_Vz5iyfCP56sq2AOqm4zbwkkQb9BBNbuxSC25CapRwnqlM4CdVc7RcAjSs4kEqYkBf0oH2eOKKQXGkKTgKUXWsQfMAYeN6ePYbRM2OcNch6sKGUhIzzgssoOkMY8csowBhgX7sq0tlUPGgcB5kvK6yD5Os4iPUPalC8IpU-pUb669rxyztvqkyTAhuBA3_vuI6oCia6uv_D0Xt47FlI4y2JCqcCtnmqakmOBwiYgG21kTH4uZ8ClOuw56FEX5mRBKHRkBaJ5_XufryaiQC5mxT8MkxuZUTLrhxkmGztLQDWi4zOA3lUE3ewEztxPcYqz36WEXw_Wy7LwV90Ul8AJoGp2u-rawtmyN1rrEp1dUNlmt3kfi9rSuWfXubLO-Ic4NrkpqJPCpxh3n_iXkVmuYa7mgtRJMhic-FNnxWaxc98HOl1nbCWEGbywISrqBc_L5AvcWzqtoH1LuKKwUOEfv5GBWBcLPzF_0000]--></g></svg>